<svg xmlns="http://www.w3.org/2000/svg" xmlns:xlink="http://www.w3.org/1999/xlink" width="90" height="89.999" viewBox="0 0 90 89.999">
  <defs>
    <clipPath id="clip-path">
      <rect id="Rectángulo_459024" data-name="Rectángulo 459024" width="52" height="52" transform="translate(-6709 -9575)" fill="#fff" stroke="#707070" stroke-width="1" opacity="0"/>
    </clipPath>
  </defs>
  <g id="Grupo_1698996" data-name="Grupo 1698996" transform="translate(6728.27 9594)">
    <g id="Grupo_1356861" data-name="Grupo 1356861" transform="translate(-7529.052 -12129)">
      <g id="Grupo_1350988" data-name="Grupo 1350988" transform="translate(800.781 2535)">
        <g id="Grupo_1204437" data-name="Grupo 1204437" transform="translate(0 0)">
          <g id="Grupo_1204285" data-name="Grupo 1204285" transform="translate(0 0)">
            <g id="Grupo_1204180" data-name="Grupo 1204180">
              <g id="Grupo_1204143" data-name="Grupo 1204143">
                <g id="Grupo_1188789" data-name="Grupo 1188789" transform="translate(0)">
                  <path id="Trazado_1243039" data-name="Trazado 1243039" d="M37.05,0h0a37.05,37.05,0,1,1,0,74.1h0a37.05,37.05,0,0,1,0-74.1Z" transform="translate(7.951 7.949)" fill="#ff9200"/>
                  <rect id="Rectángulo_400907" data-name="Rectángulo 400907" width="80.438" height="80.437" rx="40.218" transform="translate(4.782 4.781)" fill="none"/>
                  <g id="Grupo_1098742" data-name="Grupo 1098742" transform="translate(0)">
                    <g id="Rectángulo_400898" data-name="Rectángulo 400898" transform="translate(0)" fill="none" stroke="#fff" stroke-width="2" opacity="0.859">
                      <rect width="90" height="89.999" rx="44.999" stroke="none"/>
                      <rect x="1" y="1" width="88" height="87.999" rx="43.999" fill="none"/>
                    </g>
                    <g id="Rectángulo_400907-2" data-name="Rectángulo 400907" transform="translate(0)" fill="none" stroke="#0f1f33" stroke-linecap="round" stroke-width="2">
                      <rect width="90" height="89.999" rx="44.999" stroke="none"/>
                      <rect x="1" y="1" width="88" height="87.999" rx="43.999" fill="none"/>
                    </g>
                  </g>
                </g>
              </g>
            </g>
          </g>
        </g>
      </g>
    </g>
    <g id="Enmascarar_grupo_1099638" data-name="Enmascarar grupo 1099638" clip-path="url(#clip-path)">
      <g id="big-data" transform="translate(-6709 -9574.999)">
        <g id="Grupo_1705200" data-name="Grupo 1705200">
          <g id="Grupo_1705191" data-name="Grupo 1705191">
            <path id="Trazado_1411746" data-name="Trazado 1411746" d="M34.865,27.668l-.008.008a13.376,13.376,0,0,0-11.171-3.153l-.034-.218a.837.837,0,0,0,.671-.822V15.1a.841.841,0,0,0-.839-.839h-.839V10.9h.839a.841.841,0,0,0,.839-.839V5.384A13.418,13.418,0,1,1,34.865,27.668Z" fill="#69d6f4"/>
          </g>
          <g id="Grupo_1705192" data-name="Grupo 1705192">
            <path id="Trazado_1411747" data-name="Trazado 1411747" d="M2.517,10.9H22.646v3.355H2.517Z" fill="#ffeaa7"/>
          </g>
          <g id="Grupo_1705193" data-name="Grupo 1705193">
            <path id="Trazado_1411748" data-name="Trazado 1411748" d="M24.323,5.384v4.68a.841.841,0,0,1-.839.839H1.678a.841.841,0,0,1-.839-.839V1.677A.841.841,0,0,1,1.678.839H23.484a.841.841,0,0,1,.839.839Z" fill="#fcd770"/>
          </g>
          <g id="Grupo_1705194" data-name="Grupo 1705194">
            <path id="Trazado_1411749" data-name="Trazado 1411749" d="M23.484,14.258a.841.841,0,0,1,.839.839v8.387a.837.837,0,0,1-.671.822,1.032,1.032,0,0,1-.168.017H1.678a.841.841,0,0,1-.839-.839V15.1a.841.841,0,0,1,.839-.839H23.484Z" fill="#fcd770"/>
          </g>
          <g id="Grupo_1705195" data-name="Grupo 1705195">
            <path id="Trazado_1411750" data-name="Trazado 1411750" d="M23.484,24.322a1.032,1.032,0,0,0,.168-.017l.034.218a13.252,13.252,0,0,0-6.55,3.162l-.008-.008H2.517V24.322Z" fill="#ffeaa7"/>
          </g>
          <g id="Grupo_1705196" data-name="Grupo 1705196">
            <path id="Trazado_1411751" data-name="Trazado 1411751" d="M8.145,34.453a8.317,8.317,0,0,0-5.6,3.3l-.025-.017H1.678A.841.841,0,0,1,.84,36.9V28.516a.841.841,0,0,1,.839-.839H17.127l.008.008a13.366,13.366,0,0,0-4.311,7.523,8.331,8.331,0,0,0-4.68-.755Z" fill="#fcd770"/>
          </g>
          <g id="Grupo_1705197" data-name="Grupo 1705197">
            <path id="Trazado_1411752" data-name="Trazado 1411752" d="M51.119,41.935a8.39,8.39,0,0,1-8.345,9.226H9.226A8.39,8.39,0,0,1,.881,41.935a8.108,8.108,0,0,1,1.661-4.177,8.293,8.293,0,0,1,10.282-2.55A13.477,13.477,0,0,1,23.685,24.523a13.376,13.376,0,0,1,11.171,3.153,13.353,13.353,0,0,1,4.319,7.531,8.331,8.331,0,0,1,4.68-.755A8.444,8.444,0,0,1,51.119,41.935Z" fill="#e6e9ed"/>
          </g>
          <g id="Grupo_1705198" data-name="Grupo 1705198">
            <path id="Trazado_1411753" data-name="Trazado 1411753" d="M34.386,41.1l-3.355,5.032L27.677,41.1h1.677V32.709h3.355V41.1Z" fill="#ff826e"/>
          </g>
          <g id="Grupo_1705199" data-name="Grupo 1705199">
            <path id="Trazado_1411754" data-name="Trazado 1411754" d="M20.968,32.709l3.355,5.032H22.646v8.387H19.291V37.741H17.613Z" fill="#ff826e"/>
          </g>
        </g>
        <g id="Grupo_1705201" data-name="Grupo 1705201">
          <path id="Trazado_1411755" data-name="Trazado 1411755" d="M33.548,31.87H28.516v8.387H26.11l4.921,7.383,4.922-7.383H33.548ZM31.032,44.616l-1.787-2.681h.949V33.548H31.87v8.387h.949Z"/>
          <path id="Trazado_1411756" data-name="Trazado 1411756" d="M16.046,38.58h2.405v8.387h5.032V38.58h2.405L20.967,31.2ZM21.807,36.9v8.387H20.129V36.9H19.18l1.788-2.681L22.755,36.9Z"/>
          <path id="Trazado_1411757" data-name="Trazado 1411757" d="M51.954,41.855a9.212,9.212,0,0,0-12.185-7.8,14.184,14.184,0,0,0-3.088-5.737A14.251,14.251,0,1,0,25.161,3.412V1.677A1.679,1.679,0,0,0,23.483,0H1.677A1.679,1.679,0,0,0,0,1.677v8.387a1.679,1.679,0,0,0,1.677,1.677v1.677A1.679,1.679,0,0,0,0,15.1v8.387a1.679,1.679,0,0,0,1.677,1.677v1.677A1.679,1.679,0,0,0,0,28.516V36.9a1.677,1.677,0,0,0,1.082,1.563,9.042,9.042,0,0,0-1.037,3.39,9.145,9.145,0,0,0,2.347,7.117A9.249,9.249,0,0,0,9.226,52H42.774a9.244,9.244,0,0,0,6.833-3.027A9.151,9.151,0,0,0,51.954,41.855ZM25.162,10.064V8.387h4.11a22.46,22.46,0,0,0-.726,5.032H23.484V11.742A1.68,1.68,0,0,0,25.162,10.064ZM37.75,8.387a20.447,20.447,0,0,1,.8,5.032H30.223a20.388,20.388,0,0,1,.808-5.032ZM31.611,6.71a16.615,16.615,0,0,1,2.778-4.654A16.415,16.415,0,0,1,37.17,6.71Zm15.314,6.71h-6.7A22.46,22.46,0,0,0,39.5,8.387h6A12.478,12.478,0,0,1,46.925,13.419ZM28.536,15.1a22.253,22.253,0,0,0,.741,5.032H25.161V15.1Zm1.677,0h8.341a20.347,20.347,0,0,1-.809,5.032H31.014A20.5,20.5,0,0,1,30.214,15.1Zm10.019,0h6.694a12.573,12.573,0,0,1-1.4,5.032H39.5A22.351,22.351,0,0,0,40.233,15.1ZM25.162,23.483V21.806h4.644a19.875,19.875,0,0,0,1.145,2.576,14.173,14.173,0,0,0-4.95-.9c-.283,0-.563.019-.842.035,0-.012,0-.023,0-.035ZM33.921,25.9A16.916,16.916,0,0,1,31.6,21.806h5.565a16.785,16.785,0,0,1-2.651,4.512C34.318,26.174,34.12,26.034,33.921,25.9Zm2.454.773a18.676,18.676,0,0,0,2.6-4.867h5.48A12.492,12.492,0,0,1,36.375,26.673ZM44.427,6.71H38.975a18.73,18.73,0,0,0-2.591-4.858A12.572,12.572,0,0,1,44.427,6.71ZM32.386,1.856A18.717,18.717,0,0,0,29.8,6.71H25.162V5.723A12.568,12.568,0,0,1,32.386,1.856ZM1.678,1.677H23.484v8.387H1.678ZM3.356,11.742H21.807v1.677H3.356ZM1.678,15.1H23.484v8.387H1.678ZM3.356,25.161H19.305a14.324,14.324,0,0,0-2.466,1.677H3.356ZM1.678,36.9V28.516H15.15a14.172,14.172,0,0,0-2.919,5.542A9.174,9.174,0,0,0,2.126,36.9ZM48.365,47.845a7.565,7.565,0,0,1-5.592,2.477H9.226a7.547,7.547,0,1,1,3.24-14.357l.98.468.2-1.067a12.575,12.575,0,0,1,24.7,0l.2,1.067.98-.468a7.544,7.544,0,0,1,8.831,11.881Z"/>
          <path id="Trazado_1411758" data-name="Trazado 1411758" d="M43.612,28.516h1.677v1.677H43.612Z"/>
          <path id="Trazado_1411759" data-name="Trazado 1411759" d="M46.967,28.516h1.677v1.677H46.967Z"/>
          <path id="Trazado_1411760" data-name="Trazado 1411760" d="M50.321,28.516H52v1.677H50.321Z"/>
        </g>
      </g>
    </g>
  </g>
</svg>
