<svg xmlns="http://www.w3.org/2000/svg" xmlns:xlink="http://www.w3.org/1999/xlink" width="90" height="89.999" viewBox="0 0 90 89.999">
  <defs>
    <clipPath id="clip-path">
      <rect id="Rectángulo_459024" data-name="Rectángulo 459024" width="52" height="52" transform="translate(-6709 -9575)" fill="#fff" stroke="#707070" stroke-width="1" opacity="0"/>
    </clipPath>
  </defs>
  <g id="Grupo_1698995" data-name="Grupo 1698995" transform="translate(6728.27 9594)">
    <g id="Grupo_1356861" data-name="Grupo 1356861" transform="translate(-7529.052 -12129)">
      <g id="Grupo_1350988" data-name="Grupo 1350988" transform="translate(800.781 2535)">
        <g id="Grupo_1204437" data-name="Grupo 1204437" transform="translate(0 0)">
          <g id="Grupo_1204285" data-name="Grupo 1204285" transform="translate(0 0)">
            <g id="Grupo_1204180" data-name="Grupo 1204180">
              <g id="Grupo_1204143" data-name="Grupo 1204143">
                <g id="Grupo_1188789" data-name="Grupo 1188789" transform="translate(0)">
                  <path id="Trazado_1243039" data-name="Trazado 1243039" d="M37.05,0h0a37.05,37.05,0,1,1,0,74.1h0a37.05,37.05,0,0,1,0-74.1Z" transform="translate(7.951 7.949)" fill="#ff9200"/>
                  <rect id="Rectángulo_400907" data-name="Rectángulo 400907" width="80.438" height="80.437" rx="40.218" transform="translate(4.782 4.781)" fill="none"/>
                  <g id="Grupo_1098742" data-name="Grupo 1098742" transform="translate(0)">
                    <g id="Rectángulo_400898" data-name="Rectángulo 400898" transform="translate(0)" fill="none" stroke="#fff" stroke-width="2" opacity="0.859">
                      <rect width="90" height="89.999" rx="44.999" stroke="none"/>
                      <rect x="1" y="1" width="88" height="87.999" rx="43.999" fill="none"/>
                    </g>
                    <g id="Rectángulo_400907-2" data-name="Rectángulo 400907" transform="translate(0)" fill="none" stroke="#0f1f33" stroke-linecap="round" stroke-width="2">
                      <rect width="90" height="89.999" rx="44.999" stroke="none"/>
                      <rect x="1" y="1" width="88" height="87.999" rx="43.999" fill="none"/>
                    </g>
                  </g>
                </g>
              </g>
            </g>
          </g>
        </g>
      </g>
    </g>
    <g id="Enmascarar_grupo_1099637" data-name="Enmascarar grupo 1099637" clip-path="url(#clip-path)">
      <g id="agregar_1_" data-name="agregar (1)" transform="translate(-6709.84 -9575.839)">
        <g id="Grupo_1705137" data-name="Grupo 1705137">
          <circle id="Elipse_12492" data-name="Elipse 12492" cx="6.71" cy="6.71" r="6.71" transform="translate(38.581 1.677)" fill="#3d98f7"/>
        </g>
        <g id="Grupo_1705138" data-name="Grupo 1705138">
          <path id="Trazado_1411693" data-name="Trazado 1411693" d="M20.968,16.774H19.29a2.516,2.516,0,0,1,0-5.032h1.677" fill="#db9b7c"/>
        </g>
        <g id="Grupo_1705139" data-name="Grupo 1705139">
          <path id="Trazado_1411694" data-name="Trazado 1411694" d="M32.71,11.742h1.677a2.516,2.516,0,0,1,0,5.032H32.71" fill="#db9b7c"/>
        </g>
        <g id="Grupo_1705140" data-name="Grupo 1705140">
          <path id="Trazado_1411695" data-name="Trazado 1411695" d="M39.419,33.548V30.194a8.387,8.387,0,0,0-8.387-8.387H22.645a8.387,8.387,0,0,0-8.387,8.387v3.355Z" fill="#2b74ca"/>
        </g>
        <g id="Grupo_1705141" data-name="Grupo 1705141">
          <path id="Trazado_1411696" data-name="Trazado 1411696" d="M32.71,21.806l-1.677,8.387L26.839,26l-4.194,4.194-1.677-8.387" fill="#3d98f7"/>
        </g>
        <g id="Grupo_1705142" data-name="Grupo 1705142">
          <path id="Trazado_1411697" data-name="Trazado 1411697" d="M33.548,5.871V15.1a6.71,6.71,0,1,1-13.419,0V5.871" fill="#efbe9a"/>
        </g>
        <g id="Grupo_1705143" data-name="Grupo 1705143">
          <path id="Trazado_1411698" data-name="Trazado 1411698" d="M28.516,5.871V6.71a5.032,5.032,0,0,1-5.032,5.032H18.452V7.548a5.871,5.871,0,0,1,5.871-5.871h5.032a5.871,5.871,0,0,1,5.871,5.871v4.194H31.032a2.516,2.516,0,0,1-2.516-2.516Z" fill="#976947"/>
        </g>
        <g id="Grupo_1705144" data-name="Grupo 1705144">
          <path id="Trazado_1411699" data-name="Trazado 1411699" d="M23.484,21.806,26.839,26l3.355-4.194" fill="#efbe9a"/>
        </g>
        <g id="Grupo_1705145" data-name="Grupo 1705145">
          <path id="Trazado_1411700" data-name="Trazado 1411700" d="M8.387,35.226H6.71a2.516,2.516,0,0,1,0-5.032H8.387" fill="#db9b7c"/>
        </g>
        <g id="Grupo_1705146" data-name="Grupo 1705146">
          <path id="Trazado_1411701" data-name="Trazado 1411701" d="M20.129,30.194h1.677a2.516,2.516,0,0,1,0,5.032H20.129" fill="#db9b7c"/>
        </g>
        <g id="Grupo_1705147" data-name="Grupo 1705147">
          <path id="Trazado_1411702" data-name="Trazado 1411702" d="M26.839,52V48.645a8.387,8.387,0,0,0-8.387-8.387H10.065a8.387,8.387,0,0,0-8.387,8.387V52Z" fill="#2b74ca"/>
        </g>
        <g id="Grupo_1705148" data-name="Grupo 1705148">
          <path id="Trazado_1411703" data-name="Trazado 1411703" d="M20.129,40.258l-1.677,8.387-4.194-4.194-4.194,4.194L8.387,40.258" fill="#3d98f7"/>
        </g>
        <g id="Grupo_1705149" data-name="Grupo 1705149">
          <path id="Trazado_1411704" data-name="Trazado 1411704" d="M20.968,24.323v9.226a6.71,6.71,0,1,1-13.419,0V24.323" fill="#efbe9a"/>
        </g>
        <g id="Grupo_1705150" data-name="Grupo 1705150">
          <path id="Trazado_1411705" data-name="Trazado 1411705" d="M15.935,24.323v.839A5.032,5.032,0,0,1,10.9,30.194H5.871V26a5.871,5.871,0,0,1,5.871-5.871h5.032A5.871,5.871,0,0,1,22.645,26v4.194H18.452a2.516,2.516,0,0,1-2.516-2.516Z" fill="#976947"/>
        </g>
        <g id="Grupo_1705151" data-name="Grupo 1705151">
          <path id="Trazado_1411706" data-name="Trazado 1411706" d="M10.9,40.258l3.355,4.194,3.355-4.194" fill="#efbe9a"/>
        </g>
        <g id="Grupo_1705152" data-name="Grupo 1705152">
          <path id="Trazado_1411707" data-name="Trazado 1411707" d="M33.548,35.226H31.871a2.516,2.516,0,0,1,0-5.032h1.677" fill="#db9b7c"/>
        </g>
        <g id="Grupo_1705153" data-name="Grupo 1705153">
          <path id="Trazado_1411708" data-name="Trazado 1411708" d="M45.29,30.194h1.677a2.516,2.516,0,0,1,0,5.032H45.29" fill="#db9b7c"/>
        </g>
        <g id="Grupo_1705154" data-name="Grupo 1705154">
          <path id="Trazado_1411709" data-name="Trazado 1411709" d="M52,52V48.645a8.387,8.387,0,0,0-8.387-8.387H35.226a8.387,8.387,0,0,0-8.387,8.387V52Z" fill="#2b74ca"/>
        </g>
        <g id="Grupo_1705155" data-name="Grupo 1705155">
          <path id="Trazado_1411710" data-name="Trazado 1411710" d="M45.29,40.258l-1.677,8.387-4.194-4.194-4.194,4.194-1.677-8.387" fill="#3d98f7"/>
        </g>
        <g id="Grupo_1705156" data-name="Grupo 1705156">
          <path id="Trazado_1411711" data-name="Trazado 1411711" d="M46.129,24.323v9.226a6.71,6.71,0,0,1-13.419,0V24.323" fill="#efbe9a"/>
        </g>
        <g id="Grupo_1705157" data-name="Grupo 1705157">
          <path id="Trazado_1411712" data-name="Trazado 1411712" d="M41.1,24.323v.839a5.032,5.032,0,0,1-5.032,5.032H31.032V26A5.871,5.871,0,0,1,36.9,20.129h5.032A5.871,5.871,0,0,1,47.806,26v4.194H43.613A2.516,2.516,0,0,1,41.1,27.677Z" fill="#976947"/>
        </g>
        <g id="Grupo_1705158" data-name="Grupo 1705158">
          <path id="Trazado_1411713" data-name="Trazado 1411713" d="M36.065,40.258l3.355,4.194,3.355-4.194" fill="#efbe9a"/>
        </g>
        <g id="Grupo_1705159" data-name="Grupo 1705159">
          <path id="Trazado_1411714" data-name="Trazado 1411714" d="M23.484,12.581H18.452V10.9h5.032A4.2,4.2,0,0,0,27.677,6.71V5.871h1.677V6.71A5.877,5.877,0,0,1,23.484,12.581Z"/>
        </g>
        <g id="Grupo_1705160" data-name="Grupo 1705160">
          <path id="Trazado_1411715" data-name="Trazado 1411715" d="M26.839,22.645A7.558,7.558,0,0,1,19.29,15.1V11.742h1.677V15.1a5.871,5.871,0,1,0,11.742,0V11.742h1.677V15.1A7.558,7.558,0,0,1,26.839,22.645Z"/>
        </g>
        <g id="Grupo_1705161" data-name="Grupo 1705161">
          <path id="Trazado_1411716" data-name="Trazado 1411716" d="M35.226,12.581H31.032a3.358,3.358,0,0,1-3.355-3.355V5.871h1.677V9.226A1.679,1.679,0,0,0,31.032,10.9h4.194Z"/>
        </g>
        <g id="Grupo_1705162" data-name="Grupo 1705162">
          <path id="Trazado_1411717" data-name="Trazado 1411717" d="M20.129,17.613H19.29a3.355,3.355,0,0,1,0-6.71h.839v1.677H19.29a1.677,1.677,0,0,0,0,3.355h.839Z"/>
        </g>
        <g id="Grupo_1705163" data-name="Grupo 1705163">
          <path id="Trazado_1411718" data-name="Trazado 1411718" d="M34.387,17.613h-.839V15.935h.839a1.677,1.677,0,0,0,0-3.355h-.839V10.9h.839a3.355,3.355,0,1,1,0,6.71Z"/>
        </g>
        <g id="Grupo_1705164" data-name="Grupo 1705164">
          <path id="Trazado_1411719" data-name="Trazado 1411719" d="M36.065,11.742H34.387V7.548a5.037,5.037,0,0,0-5.032-5.032H24.323A5.037,5.037,0,0,0,19.29,7.548v4.194H17.613V7.548a6.718,6.718,0,0,1,6.71-6.71h5.032a6.718,6.718,0,0,1,6.71,6.71Z"/>
        </g>
        <g id="Grupo_1705165" data-name="Grupo 1705165">
          <path id="Trazado_1411720" data-name="Trazado 1411720" d="M32.543,22.8a7.632,7.632,0,0,0-1.511-.151H22.645a7.632,7.632,0,0,0-1.511.151L20.8,21.152a9.282,9.282,0,0,1,1.844-.185h8.387a9.282,9.282,0,0,1,1.844.185Z"/>
        </g>
        <g id="Grupo_1705166" data-name="Grupo 1705166">
          <path id="Trazado_1411721" data-name="Trazado 1411721" d="M24.323,32.71h5.032v1.677H24.323Z"/>
        </g>
        <g id="Grupo_1705167" data-name="Grupo 1705167">
          <path id="Trazado_1411722" data-name="Trazado 1411722" d="M26.839,26.839a.839.839,0,0,1-.655-.315l-3.355-4.194,1.31-1.048,2.7,3.374,2.7-3.375,1.31,1.048-3.355,4.194a.837.837,0,0,1-.655.315Z"/>
        </g>
        <g id="Grupo_1705168" data-name="Grupo 1705168">
          <path id="Trazado_1411723" data-name="Trazado 1411723" d="M10.9,31.032H5.871V29.355H10.9A4.2,4.2,0,0,0,15.1,25.161v-.839h1.677v.839A5.877,5.877,0,0,1,10.9,31.032Z"/>
        </g>
        <g id="Grupo_1705169" data-name="Grupo 1705169">
          <path id="Trazado_1411724" data-name="Trazado 1411724" d="M14.258,41.1A7.558,7.558,0,0,1,6.71,33.548V30.194H8.387v3.355a5.871,5.871,0,0,0,11.742,0V30.194h1.677v3.355A7.558,7.558,0,0,1,14.258,41.1Z"/>
        </g>
        <g id="Grupo_1705170" data-name="Grupo 1705170">
          <path id="Trazado_1411725" data-name="Trazado 1411725" d="M22.645,31.032H18.452A3.358,3.358,0,0,1,15.1,27.677V24.323h1.677v3.355a1.679,1.679,0,0,0,1.677,1.677h4.194Z"/>
        </g>
        <g id="Grupo_1705171" data-name="Grupo 1705171">
          <path id="Trazado_1411726" data-name="Trazado 1411726" d="M7.548,36.065H6.71a3.355,3.355,0,1,1,0-6.71h.839v1.677H6.71a1.677,1.677,0,0,0,0,3.355h.839Z"/>
        </g>
        <g id="Grupo_1705172" data-name="Grupo 1705172">
          <path id="Trazado_1411727" data-name="Trazado 1411727" d="M21.806,36.065h-.839V34.387h.839a1.677,1.677,0,0,0,0-3.355h-.839V29.355h.839a3.355,3.355,0,0,1,0,6.71Z"/>
        </g>
        <g id="Grupo_1705173" data-name="Grupo 1705173">
          <path id="Trazado_1411728" data-name="Trazado 1411728" d="M23.484,30.194H21.806V26a5.037,5.037,0,0,0-5.032-5.032H11.742A5.037,5.037,0,0,0,6.71,26v4.194H5.032V26a6.718,6.718,0,0,1,6.71-6.71h5.032A6.718,6.718,0,0,1,23.484,26Z"/>
        </g>
        <g id="Grupo_1705174" data-name="Grupo 1705174">
          <path id="Trazado_1411729" data-name="Trazado 1411729" d="M26.839,52.839H1.677A.839.839,0,0,1,.839,52V48.645a9.237,9.237,0,0,1,9.226-9.226h8.387a9.237,9.237,0,0,1,9.226,9.226V52A.839.839,0,0,1,26.839,52.839ZM2.516,51.161H26V48.645A7.558,7.558,0,0,0,18.452,41.1H10.065a7.558,7.558,0,0,0-7.548,7.548Z"/>
        </g>
        <g id="Grupo_1705175" data-name="Grupo 1705175">
          <path id="Trazado_1411730" data-name="Trazado 1411730" d="M14.258,45.29a.839.839,0,0,1-.655-.315l-3.355-4.194,1.31-1.048,2.7,3.374,2.7-3.375,1.31,1.048-3.355,4.194A.837.837,0,0,1,14.258,45.29Z"/>
        </g>
        <g id="Grupo_1705176" data-name="Grupo 1705176">
          <path id="Trazado_1411731" data-name="Trazado 1411731" d="M10.065,49.484a.839.839,0,0,1-.823-.674L7.564,40.422l1.645-.33,1.37,6.851,3.086-3.086,1.186,1.186-4.194,4.194a.837.837,0,0,1-.593.247Z"/>
        </g>
        <g id="Grupo_1705177" data-name="Grupo 1705177">
          <path id="Trazado_1411732" data-name="Trazado 1411732" d="M18.452,49.484a.84.84,0,0,1-.593-.246l-4.194-4.194,1.186-1.186,3.086,3.086,1.37-6.851,1.645.33L19.274,48.81a.839.839,0,0,1-.58.638.866.866,0,0,1-.243.035Z"/>
        </g>
        <g id="Grupo_1705178" data-name="Grupo 1705178">
          <path id="Trazado_1411733" data-name="Trazado 1411733" d="M36.065,31.032H31.032V29.355h5.032a4.2,4.2,0,0,0,4.194-4.194v-.839h1.677v.839A5.877,5.877,0,0,1,36.065,31.032Z"/>
        </g>
        <g id="Grupo_1705179" data-name="Grupo 1705179">
          <path id="Trazado_1411734" data-name="Trazado 1411734" d="M39.419,41.1a7.558,7.558,0,0,1-7.548-7.548V30.194h1.677v3.355a5.871,5.871,0,0,0,11.742,0V30.194h1.677v3.355A7.558,7.558,0,0,1,39.419,41.1Z"/>
        </g>
        <g id="Grupo_1705180" data-name="Grupo 1705180">
          <path id="Trazado_1411735" data-name="Trazado 1411735" d="M47.806,31.032H43.613a3.358,3.358,0,0,1-3.355-3.355V24.323h1.677v3.355a1.679,1.679,0,0,0,1.677,1.677h4.194Z"/>
        </g>
        <g id="Grupo_1705181" data-name="Grupo 1705181">
          <path id="Trazado_1411736" data-name="Trazado 1411736" d="M32.71,36.065h-.839a3.355,3.355,0,0,1,0-6.71h.839v1.677h-.839a1.677,1.677,0,0,0,0,3.355h.839Z"/>
        </g>
        <g id="Grupo_1705182" data-name="Grupo 1705182">
          <path id="Trazado_1411737" data-name="Trazado 1411737" d="M46.968,36.065h-.839V34.387h.839a1.677,1.677,0,1,0,0-3.355h-.839V29.355h.839a3.355,3.355,0,1,1,0,6.71Z"/>
        </g>
        <g id="Grupo_1705183" data-name="Grupo 1705183">
          <path id="Trazado_1411738" data-name="Trazado 1411738" d="M48.645,30.194H46.968V26a5.037,5.037,0,0,0-5.032-5.032H36.9A5.037,5.037,0,0,0,31.871,26v4.194H30.194V26a6.718,6.718,0,0,1,6.71-6.71h5.032A6.718,6.718,0,0,1,48.645,26Z"/>
        </g>
        <g id="Grupo_1705184" data-name="Grupo 1705184">
          <path id="Trazado_1411739" data-name="Trazado 1411739" d="M52,52.839H26.839A.839.839,0,0,1,26,52V48.645a9.237,9.237,0,0,1,9.226-9.226h8.387a9.237,9.237,0,0,1,9.226,9.226V52A.839.839,0,0,1,52,52.839ZM27.677,51.161H51.161V48.645A7.558,7.558,0,0,0,43.613,41.1H35.226a7.558,7.558,0,0,0-7.548,7.548Z"/>
        </g>
        <g id="Grupo_1705185" data-name="Grupo 1705185">
          <path id="Trazado_1411740" data-name="Trazado 1411740" d="M39.419,45.29a.839.839,0,0,1-.655-.315l-3.355-4.194,1.31-1.048,2.7,3.374,2.7-3.375,1.31,1.048-3.355,4.194a.837.837,0,0,1-.655.315Z"/>
        </g>
        <g id="Grupo_1705186" data-name="Grupo 1705186">
          <path id="Trazado_1411741" data-name="Trazado 1411741" d="M35.226,49.484a.839.839,0,0,1-.823-.674l-1.677-8.387,1.645-.33,1.37,6.851,3.086-3.086,1.186,1.186-4.194,4.194a.837.837,0,0,1-.593.247Z"/>
        </g>
        <g id="Grupo_1705187" data-name="Grupo 1705187">
          <path id="Trazado_1411742" data-name="Trazado 1411742" d="M43.613,49.484a.84.84,0,0,1-.593-.246l-4.194-4.194,1.186-1.186L43.1,46.944l1.37-6.851,1.645.33L44.436,48.81a.839.839,0,0,1-.58.638.866.866,0,0,1-.243.035Z"/>
        </g>
        <g id="Grupo_1705188" data-name="Grupo 1705188">
          <path id="Trazado_1411743" data-name="Trazado 1411743" d="M45.29,15.935a7.548,7.548,0,1,1,7.548-7.548A7.558,7.558,0,0,1,45.29,15.935Zm0-13.419a5.871,5.871,0,1,0,5.871,5.871A5.877,5.877,0,0,0,45.29,2.516Z"/>
        </g>
        <g id="Grupo_1705189" data-name="Grupo 1705189">
          <path id="Trazado_1411744" data-name="Trazado 1411744" d="M44.452,4.194h1.677v8.387H44.452Z"/>
        </g>
        <g id="Grupo_1705190" data-name="Grupo 1705190">
          <path id="Trazado_1411745" data-name="Trazado 1411745" d="M41.1,7.548h8.387V9.226H41.1Z"/>
        </g>
      </g>
    </g>
  </g>
</svg>
